<svg xmlns="http://www.w3.org/2000/svg" xmlns:xlink="http://www.w3.org/1999/xlink" width="500" zoomAndPan="magnify" viewBox="0 0 375 374.999991" height="500" preserveAspectRatio="xMidYMid meet" version="1.0"><defs><clipPath id="b2dc484a6c"><path d="M 0 11.71875 L 375 11.71875 L 375 363.46875 L 0 363.46875 Z M 0 11.71875 " clip-rule="nonzero"/></clipPath></defs><path fill="#ffffff" d="M 156.347656 68.8125 C 156.890625 68.460938 157.570312 68.082031 158.363281 67.652344 C 159.148438 67.210938 160.046875 66.730469 161.050781 66.25 C 163.082031 65.351562 165.519531 64.476562 168.183594 63.636719 C 170.890625 62.96875 173.8125 62.414062 176.765625 62.023438 C 179.746094 61.847656 182.71875 61.835938 185.5 61.988281 C 188.273438 62.320312 190.835938 62.710938 193 63.210938 C 194.074219 63.496094 195.050781 63.796875 195.902344 64.085938 C 196.757812 64.363281 197.5 64.605469 198.101562 64.84375 C 199.289062 65.359375 199.960938 65.660156 199.960938 65.660156 C 199.960938 65.660156 199.226562 65.640625 197.9375 65.605469 C 197.304688 65.546875 196.53125 65.507812 195.652344 65.488281 C 194.773438 65.449219 193.78125 65.421875 192.699219 65.449219 C 190.558594 65.308594 188.058594 65.339844 185.410156 65.460938 C 182.757812 65.488281 179.941406 65.667969 177.144531 66.003906 C 174.335938 66.203125 171.535156 66.550781 168.925781 67.023438 C 166.300781 67.40625 163.835938 67.839844 161.761719 68.382812 C 160.695312 68.558594 159.726562 68.773438 158.871094 68.976562 C 158.007812 69.167969 157.257812 69.347656 156.648438 69.527344 C 155.390625 69.796875 154.667969 69.957031 154.667969 69.957031 C 154.667969 69.957031 155.28125 69.539062 156.347656 68.8125 Z M 7.78125 331.152344 C 8.570312 332.417969 9.570312 333.75 10.90625 334.808594 C 11.992188 335.644531 13.558594 336.40625 15.175781 337.109375 C 16.816406 337.796875 18.644531 338.351562 20.4375 338.75 C 20.890625 338.84375 21.308594 338.917969 21.773438 338.960938 C 22.277344 339 22.789062 339.042969 23.304688 339.078125 C 24.328125 339.167969 25.363281 339.277344 26.410156 339.316406 C 28.496094 339.457031 30.628906 339.449219 32.757812 339.332031 C 34.886719 339.28125 37.027344 339.128906 39.148438 338.863281 C 41.257812 338.601562 43.382812 338.390625 45.445312 338.085938 C 49.574219 337.53125 53.578125 337.042969 57.070312 337.070312 C 60.566406 337.039062 63.480469 337.554688 65.429688 338.085938 C 66.40625 338.347656 67.148438 338.660156 67.652344 338.835938 C 68.148438 339.03125 68.417969 339.136719 68.417969 339.136719 C 68.417969 339.136719 67.28125 339.179688 65.308594 339.269531 C 63.351562 339.417969 60.640625 339.785156 57.441406 340.5 C 55.6875 340.898438 53.773438 341.402344 51.726562 341.941406 C 61.488281 343.027344 70.285156 344.335938 74.429688 345.21875 L 72.71875 308.441406 C 65.417969 307.027344 61.210938 302.882812 53.800781 301.320312 C 45.5 299.566406 32.390625 302.734375 32.390625 302.734375 C 32.390625 302.734375 43.316406 298.066406 54.019531 294.226562 C 64.726562 290.386719 65.597656 290.054688 62.105469 284.046875 C 59.9375 280.324219 62.976562 276.402344 66.535156 270.5 C 66.453125 270.328125 66.382812 270.164062 66.339844 270.023438 L 66.058594 269.242188 L 65.882812 268.550781 C 65.648438 267.636719 65.535156 266.816406 65.425781 266.019531 C 65.21875 264.433594 65.09375 262.945312 64.925781 261.488281 C 64.761719 260.023438 64.5625 258.609375 64.210938 257.238281 C 63.839844 255.890625 63.375 254.527344 62.21875 253.511719 C 63.753906 253.75 65.171875 254.816406 66.335938 255.914062 C 67.519531 257.046875 68.558594 258.296875 69.527344 259.53125 C 69.863281 259.945312 70.179688 260.359375 70.5 260.777344 L 69.5 239.285156 C 69.328125 235.566406 70.699219 231.894531 73.265625 229.207031 C 75.832031 226.515625 79.433594 224.976562 83.148438 224.976562 L 127.207031 224.976562 C 120.347656 210.691406 116.203125 195.328125 114.933594 179.867188 C 118.164062 196.105469 124.617188 211.507812 133.582031 224.976562 L 159.035156 224.976562 C 158.40625 224.484375 157.773438 224 157.167969 223.492188 C 153.613281 220.476562 150.394531 217.066406 147.570312 213.359375 C 144.738281 209.65625 142.292969 205.652344 140.3125 201.441406 C 138.359375 197.210938 136.820312 192.78125 136.136719 188.113281 C 139.09375 191.777344 141.703125 195.441406 144.367188 199.046875 C 146.261719 201.632812 148.164062 204.183594 150.078125 206.722656 C 144.667969 196.929688 139.09375 186.019531 133.460938 174.515625 C 127.210938 161.746094 124.773438 149.164062 125.59375 137.671875 C 125.316406 138.8125 125.046875 139.957031 124.800781 141.105469 C 123.648438 146.167969 122.84375 151.324219 122.125 156.519531 C 121.453125 161.71875 120.949219 166.964844 120.453125 172.226562 C 119.730469 163.941406 119.5625 155.597656 120.097656 147.226562 C 120.128906 140.988281 120.488281 134.742188 121.285156 128.496094 C 122.699219 117.980469 125.355469 107.328125 130.917969 97.828125 C 133.671875 93.09375 137.132812 88.660156 141.378906 85.050781 C 145.574219 81.410156 150.390625 78.484375 155.484375 76.335938 C 165.757812 72.125 176.769531 70.878906 187.496094 70.785156 C 198.230469 70.886719 209.242188 72.121094 219.511719 76.34375 C 224.605469 78.492188 229.417969 81.417969 233.617188 85.058594 C 237.859375 88.667969 241.320312 93.097656 244.074219 97.832031 C 249.636719 107.335938 252.292969 117.980469 253.707031 128.503906 C 254.503906 134.761719 254.867188 141.042969 254.902344 147.3125 C 255.429688 155.652344 255.257812 163.972656 254.542969 172.226562 C 254.054688 166.964844 253.546875 161.71875 252.878906 156.519531 C 252.464844 153.535156 252.015625 150.566406 251.496094 147.613281 C 251.527344 157.886719 249.253906 168.683594 244.261719 179.402344 C 236.046875 197.066406 227.039062 212.785156 218.351562 224.976562 L 291.847656 224.976562 C 295.5625 224.976562 299.167969 226.515625 301.734375 229.207031 C 304.300781 231.894531 305.671875 235.566406 305.496094 239.285156 L 304.1875 267.441406 C 305.441406 273.425781 305.296875 276.070312 306.914062 280.925781 C 309.195312 287.769531 310.425781 290.386719 322.683594 294.226562 C 334.941406 298.066406 336.957031 301.191406 336.957031 301.191406 C 336.957031 301.191406 320.910156 298.84375 314.257812 300.070312 C 308.664062 301.09375 308.40625 306.035156 302.296875 308.035156 L 300.476562 347.160156 C 303.304688 345.734375 311.390625 344.238281 320.601562 342.792969 C 320.304688 342.695312 319.996094 342.601562 319.710938 342.5 C 317.03125 341.605469 314.875 340.664062 313.359375 339.988281 C 311.847656 339.304688 311 338.859375 311 338.859375 C 311 338.859375 311.957031 338.8125 313.613281 338.832031 C 315.269531 338.839844 317.621094 338.945312 320.390625 339.136719 C 321.777344 339.234375 323.273438 339.28125 324.832031 339.445312 C 326.386719 339.539062 328.03125 339.644531 329.722656 339.753906 C 330.5625 339.789062 331.417969 339.832031 332.28125 339.875 C 333.136719 339.886719 334.003906 339.875 334.875 339.925781 C 335.746094 339.980469 336.613281 339.949219 337.484375 339.929688 C 338.355469 339.890625 339.238281 339.929688 340.09375 339.808594 L 341.042969 339.757812 C 344.394531 339.257812 347.445312 338.777344 349.949219 338.324219 C 350.828125 338.074219 351.589844 337.851562 352.332031 337.636719 C 353.0625 337.378906 353.753906 337.074219 354.457031 336.820312 C 355.890625 336.351562 357.097656 335.617188 358.324219 335.070312 C 368.121094 325.949219 364.402344 318.859375 356.492188 285.214844 C 349.625 256.03125 334.800781 221.347656 326.34375 212.457031 C 318.066406 203.765625 298.425781 212.242188 271.097656 204.769531 C 267.660156 208.667969 263.726562 212.101562 259.296875 214.71875 C 264.765625 208.625 269.121094 201.992188 272.691406 194.976562 C 275.035156 190.300781 277.003906 185.460938 278.664062 180.519531 C 276.898438 183.878906 274.957031 187.117188 272.820312 190.214844 C 270.558594 193.515625 268.140625 196.710938 265.492188 199.6875 C 269.578125 192.863281 273.152344 185.785156 275.960938 178.507812 C 277.335938 174.855469 278.492188 171.152344 279.277344 167.4375 C 279.652344 165.570312 279.925781 163.707031 280.050781 161.863281 C 280.109375 160.941406 280.136719 160.027344 280.117188 159.117188 L 280.003906 156.253906 C 279.617188 148.601562 278.144531 141.09375 275.457031 134.023438 C 272.796875 126.941406 269.007812 120.316406 264.613281 113.984375 C 260.222656 107.632812 255.261719 101.539062 250.421875 95.132812 C 248.011719 91.917969 245.648438 88.613281 243.429688 85.148438 C 242.316406 83.429688 241.257812 81.648438 240.265625 79.824219 C 239.257812 78.003906 238.335938 76.117188 237.511719 74.34375 C 234.152344 67.152344 230.980469 60.035156 227.351562 53.152344 C 223.753906 46.257812 219.679688 39.648438 214.378906 33.601562 C 220.671875 37.175781 225.882812 42.5 230.386719 48.214844 C 228.503906 41.097656 225.820312 32.757812 218.488281 26.597656 C 223.550781 29.761719 228.085938 33.75 231.929688 38.339844 C 237.390625 44.742188 241.589844 52.148438 245.34375 59.746094 C 249.117188 67.351562 252.238281 75.324219 256.222656 82.886719 C 254.613281 78.933594 253.085938 74.957031 251.597656 70.957031 C 250.054688 66.984375 248.464844 63.011719 246.734375 59.09375 C 243.273438 51.269531 239.042969 43.671875 233.457031 37.046875 C 230.648438 33.757812 227.511719 30.722656 224.035156 28.128906 C 220.550781 25.554688 216.769531 23.355469 212.746094 21.761719 C 208.734375 20.15625 204.546875 19.019531 200.308594 18.335938 C 196.046875 17.761719 191.761719 17.539062 187.496094 17.71875 C 183.410156 17.71875 179.617188 18.066406 176.058594 18.660156 C 181.644531 19.027344 187.015625 19.898438 192.394531 21.09375 C 198.113281 22.429688 203.761719 24.140625 209.132812 26.664062 C 203.203125 26.59375 197.445312 26.148438 191.695312 25.765625 C 185.976562 25.375 180.1875 24.863281 174.621094 24.574219 C 169.03125 24.292969 163.695312 24.566406 158.421875 26.027344 C 156.964844 26.429688 155.519531 26.910156 154.097656 27.472656 C 150.9375 29.671875 148.085938 32.171875 145.507812 34.882812 C 143.15625 38.160156 140.917969 41.496094 138.902344 44.960938 C 134.613281 52.289062 131.574219 60.144531 129.585938 68.386719 C 128.488281 72.472656 127.671875 76.703125 126.699219 80.917969 C 125.664062 85.132812 124.644531 89.390625 123.167969 93.515625 C 120.351562 101.8125 116.257812 109.628906 111.195312 116.648438 C 114.835938 108.777344 118.007812 100.828125 120.191406 92.609375 C 122.210938 85.21875 123.378906 77.605469 125.117188 69.933594 C 122.859375 75.417969 120.835938 80.558594 118.777344 84.886719 C 108.035156 107.445312 104.152344 119.132812 97.707031 132.746094 C 95.921875 136.515625 94.984375 140.957031 94.5625 145.414062 C 94.554688 147.535156 94.601562 149.65625 94.683594 151.773438 C 95.050781 159.71875 95.902344 167.667969 96.574219 175.742188 L 96.695312 177.253906 L 96.832031 178.648438 C 96.953125 179.5625 97.09375 180.472656 97.273438 181.367188 C 97.640625 183.160156 98.207031 184.875 98.917969 186.566406 C 100.375 189.929688 102.605469 193.15625 104.828125 196.574219 C 107.09375 199.957031 109.222656 203.558594 110.960938 207.308594 C 112.664062 211.082031 114.042969 214.96875 114.933594 218.964844 C 112.875 215.425781 110.835938 211.957031 108.53125 208.699219 C 106.28125 205.394531 103.773438 202.351562 101.222656 199.230469 C 98.664062 196.136719 95.945312 192.878906 93.960938 188.890625 C 92.96875 186.910156 92.21875 184.777344 91.695312 182.621094 C 91.433594 181.546875 91.242188 180.457031 91.089844 179.371094 L 90.910156 177.742188 L 90.773438 176.234375 C 90.597656 174.1875 90.425781 172.128906 90.285156 170.066406 C 71.226562 175.109375 51.472656 183.863281 42.195312 195.128906 C 42.226562 195.171875 42.269531 195.210938 42.300781 195.257812 C 42.679688 195.6875 43 196.121094 43.28125 196.554688 C 44.46875 198.292969 45.3125 200.027344 46.046875 201.765625 C 47.480469 205.222656 48.476562 208.707031 49.152344 212.210938 C 46.96875 209.417969 44.546875 206.84375 41.980469 204.671875 C 40.695312 203.597656 39.363281 202.628906 38.070312 201.957031 C 37.863281 202.433594 37.6875 202.929688 37.539062 203.425781 C 32.527344 219.902344 19.589844 259.117188 13.148438 279.527344 C 8.878906 293.058594 5.328125 316.722656 7.78125 331.152344 " fill-opacity="1" fill-rule="nonzero"/><path fill="#ffffff" d="M 230.222656 89.066406 C 228.347656 87.527344 226.351562 86.15625 224.261719 84.9375 C 223.589844 84.195312 222.875 83.585938 222.125 83.148438 C 221.089844 82.550781 219.804688 82.210938 218.359375 82.019531 C 218.03125 81.886719 217.714844 81.722656 217.378906 81.59375 C 208.042969 77.957031 197.753906 76.769531 187.496094 76.792969 C 177.246094 76.777344 166.953125 77.953125 157.621094 81.605469 C 157.296875 81.730469 156.988281 81.886719 156.667969 82.019531 C 155.210938 82.203125 153.914062 82.546875 152.875 83.148438 C 152.117188 83.589844 151.394531 84.207031 150.71875 84.953125 C 148.636719 86.171875 146.644531 87.539062 144.78125 89.070312 C 140.925781 92.210938 137.65625 96.054688 134.914062 100.28125 C 133.164062 103.015625 131.664062 105.917969 130.335938 108.910156 C 133.054688 104.230469 136.464844 99.828125 140.664062 96.230469 C 144.9375 92.484375 149.851562 89.464844 155.035156 87.242188 C 165.507812 82.921875 176.667969 81.65625 187.496094 81.546875 C 198.324219 81.667969 209.492188 82.914062 219.957031 87.253906 C 225.144531 89.476562 230.054688 92.492188 234.328125 96.234375 C 238.570312 99.863281 242 104.324219 244.734375 109.058594 C 243.394531 106.007812 241.871094 103.058594 240.09375 100.273438 C 237.351562 96.042969 234.078125 92.203125 230.222656 89.066406 " fill-opacity="1" fill-rule="nonzero"/><g clip-path="url(#b2dc484a6c)"><path fill="#373737" d="M 234.328125 96.234375 C 230.054688 92.492188 225.144531 89.476562 219.957031 87.253906 C 209.492188 82.914062 198.324219 81.667969 187.496094 81.546875 C 176.667969 81.65625 165.507812 82.921875 155.035156 87.242188 C 149.851562 89.464844 144.9375 92.484375 140.664062 96.230469 C 136.464844 99.828125 133.054688 104.230469 130.335938 108.910156 C 131.664062 105.917969 133.164062 103.015625 134.914062 100.28125 C 137.65625 96.054688 140.925781 92.210938 144.78125 89.070312 C 146.644531 87.539062 148.636719 86.171875 150.71875 84.953125 C 151.394531 84.207031 152.117188 83.589844 152.875 83.148438 C 153.914062 82.546875 155.210938 82.203125 156.667969 82.019531 C 156.988281 81.886719 157.296875 81.730469 157.621094 81.605469 C 166.953125 77.953125 177.246094 76.777344 187.496094 76.792969 C 197.753906 76.769531 208.042969 77.957031 217.378906 81.59375 C 217.714844 81.722656 218.03125 81.886719 218.359375 82.019531 C 219.804688 82.210938 221.089844 82.550781 222.125 83.148438 C 222.875 83.585938 223.589844 84.195312 224.261719 84.9375 C 226.351562 86.15625 228.347656 87.527344 230.222656 89.066406 C 234.078125 92.203125 237.351562 96.042969 240.09375 100.273438 C 241.871094 103.058594 243.394531 106.007812 244.734375 109.058594 C 242 104.324219 238.570312 99.863281 234.328125 96.234375 Z M 146.632812 129.011719 C 146.972656 132.199219 147.277344 135.601562 149.089844 138.101562 C 150.003906 139.269531 151.230469 140.492188 152.25 141.734375 C 153.296875 142.992188 154.3125 144.304688 155.203125 145.714844 C 157.023438 148.527344 158.148438 151.796875 158.707031 155.074219 C 158.957031 156.773438 159.136719 158.234375 159.515625 159.796875 C 159.875 161.34375 160.316406 162.871094 160.832031 164.375 C 162.855469 170.378906 165.902344 176.140625 170.390625 180.601562 C 172.644531 182.800781 175.257812 184.648438 178.175781 185.917969 C 181.074219 187.230469 184.265625 187.871094 187.496094 188.113281 C 184.261719 188.320312 180.953125 187.878906 177.816406 186.832031 C 176.253906 186.285156 174.761719 185.546875 173.316406 184.710938 C 171.90625 183.839844 170.566406 182.835938 169.320312 181.730469 C 164.34375 177.253906 161.0625 171.234375 158.9375 165.011719 C 158.417969 163.441406 157.972656 161.847656 157.609375 160.238281 C 157.242188 158.644531 157.019531 156.890625 156.839844 155.371094 C 156.402344 152.253906 155.414062 149.261719 153.832031 146.539062 C 152.273438 143.769531 150.164062 141.4375 148.1875 138.699219 C 147.273438 137.214844 146.910156 135.53125 146.714844 133.910156 C 146.527344 132.265625 146.550781 130.636719 146.632812 129.011719 Z M 145.828125 115.628906 C 149.246094 111.914062 153.363281 108.511719 158.316406 105.734375 C 158.851562 105.953125 159.351562 106.222656 159.757812 106.582031 C 160.023438 106.820312 160.277344 107.058594 160.46875 107.347656 L 160.628906 107.546875 L 160.988281 107.960938 C 161.253906 108.253906 161.515625 108.488281 161.78125 108.71875 C 162.824219 109.597656 163.867188 110.160156 164.898438 110.6875 C 165.59375 111.027344 166.289062 111.316406 166.988281 111.585938 C 163.582031 112.59375 162.539062 114.265625 158.15625 115.832031 C 152.304688 117.914062 162.152344 117.394531 173.996094 118.570312 C 184.050781 119.5625 185.460938 116.238281 185.3125 112.714844 C 185.433594 112.515625 185.519531 112.335938 185.601562 112.160156 C 186.179688 110.71875 186.238281 109.652344 186.328125 108.511719 C 186.390625 107.402344 186.371094 106.320312 186.304688 105.246094 C 186.140625 103.105469 185.886719 100.996094 185.332031 98.914062 C 184.683594 100.96875 184.207031 103 183.636719 104.980469 C 183.363281 105.964844 183.085938 106.945312 182.78125 107.863281 C 182.566406 108.511719 182.3125 109.203125 182.0625 109.695312 C 181.808594 109.660156 181.492188 109.621094 181.191406 109.566406 C 180.269531 109.394531 179.296875 109.203125 178.332031 108.988281 C 176.398438 108.554688 174.453125 108.089844 172.546875 107.582031 C 170.644531 107.070312 168.746094 106.519531 167.015625 105.871094 C 166.160156 105.554688 165.351562 105.171875 164.730469 104.816406 C 164.589844 104.730469 164.441406 104.636719 164.347656 104.558594 C 164.285156 104.507812 164.285156 104.527344 164.160156 104.417969 L 163.773438 104.070312 C 163.523438 103.835938 163.253906 103.632812 162.976562 103.4375 C 169.949219 100.414062 178.34375 98.570312 188.480469 98.570312 C 196.96875 98.570312 204.1875 99.863281 210.347656 102.0625 C 210.242188 102.113281 210.140625 102.167969 210.039062 102.222656 C 207.574219 103.585938 205.363281 105.035156 203.089844 106.433594 C 200.824219 107.871094 198.542969 109.246094 195.863281 110.835938 C 195.722656 111.84375 195.613281 112.894531 195.695312 113.886719 C 195.691406 114.101562 195.71875 114.351562 195.800781 114.652344 C 196.738281 117.964844 195.921875 123.125 195.710938 129.484375 C 194.480469 129.515625 193.210938 129.523438 191.890625 129.523438 C 162.09375 129.523438 149.734375 125.582031 146.359375 118.109375 C 146.234375 117.265625 146.070312 116.441406 145.828125 115.628906 Z M 199.269531 129.386719 C 199.273438 126.21875 200.054688 121.546875 200.644531 118.496094 C 202.234375 118.777344 204.289062 118.832031 206.996094 118.570312 C 218.84375 117.394531 228.6875 117.914062 222.835938 115.832031 C 216.988281 113.746094 217.089844 111.457031 209.566406 110.835938 C 208.621094 110.757812 207.695312 110.699219 206.804688 110.65625 C 209.082031 109.957031 211.214844 108.972656 213.160156 107.902344 C 214.367188 107.230469 215.5625 106.519531 216.503906 106.011719 C 217 105.703125 217.324219 105.664062 217.277344 105.523438 C 217.398438 105.476562 217.363281 105.3125 217.652344 105.386719 C 218.246094 105.519531 219.257812 106.707031 220.371094 107.757812 C 221.496094 108.816406 222.992188 109.835938 224.574219 109.964844 C 226.363281 111.367188 228.023438 112.914062 229.542969 114.53125 C 228.625 116.925781 228.378906 119.503906 228.347656 122.144531 C 224.207031 125.75 215.921875 128.714844 199.269531 129.386719 Z M 172.929688 195.339844 C 174.242188 195.765625 176.132812 196.289062 178.417969 196.753906 C 180.703125 197.238281 183.414062 197.5 186.300781 197.585938 C 189.191406 197.664062 192.277344 197.371094 195.265625 196.703125 C 198.28125 196.117188 201.195312 195.121094 203.796875 193.835938 C 206.390625 192.554688 208.78125 191.21875 210.757812 189.945312 C 212.734375 188.671875 214.421875 187.640625 215.566406 186.867188 C 216.738281 186.128906 217.40625 185.703125 217.40625 185.703125 C 217.40625 185.703125 216.824219 186.242188 215.804688 187.175781 C 214.753906 188.074219 213.300781 189.429688 211.402344 190.871094 C 209.5 192.292969 207.257812 193.988281 204.574219 195.386719 C 201.914062 196.800781 198.839844 197.953125 195.679688 198.660156 C 192.5 199.28125 189.25 199.488281 186.230469 199.316406 C 183.210938 199.15625 180.449219 198.503906 178.144531 197.847656 C 175.835938 197.1875 174.039062 196.28125 172.78125 195.699219 C 171.570312 195.023438 170.875 194.644531 170.875 194.644531 C 170.875 194.644531 171.621094 194.894531 172.929688 195.339844 Z M 210.289062 209.003906 C 207.953125 210.351562 205.453125 211.492188 202.824219 212.414062 C 201.484375 212.820312 200.160156 213.316406 198.757812 213.585938 L 196.675781 214.058594 C 195.976562 214.210938 195.257812 214.28125 194.550781 214.390625 C 191.710938 214.785156 188.808594 214.746094 185.992188 214.558594 C 184.582031 214.433594 183.191406 214.1875 181.832031 213.933594 C 180.496094 213.554688 179.15625 213.296875 177.894531 212.839844 C 176.628906 212.398438 175.375 212.003906 174.230469 211.40625 C 173.070312 210.867188 171.941406 210.324219 170.914062 209.6875 C 169.851562 209.097656 168.847656 208.492188 167.941406 207.804688 C 167.023438 207.140625 166.128906 206.515625 165.359375 205.8125 C 162.105469 203.1875 159.96875 200.460938 158.5 198.601562 C 157.128906 196.632812 156.421875 195.492188 156.421875 195.492188 C 156.421875 195.492188 157.53125 196.296875 159.347656 197.765625 C 161.253906 199.121094 163.894531 201.117188 167.304688 202.992188 C 168.128906 203.5 169.050781 203.914062 169.984375 204.371094 C 170.894531 204.855469 171.882812 205.257812 172.886719 205.683594 C 173.878906 206.140625 174.945312 206.46875 176.027344 206.820312 C 177.085938 207.214844 178.222656 207.441406 179.34375 207.765625 C 180.464844 208.097656 181.65625 208.195312 182.824219 208.433594 C 184.011719 208.550781 185.214844 208.683594 186.425781 208.78125 C 188.84375 208.867188 191.324219 208.851562 193.769531 208.441406 C 194.382812 208.355469 195 208.3125 195.609375 208.195312 L 197.433594 207.824219 C 198.65625 207.617188 199.828125 207.195312 201.019531 206.871094 C 203.367188 206.105469 205.707031 205.367188 207.792969 204.339844 C 212.011719 202.296875 215.6875 199.707031 218.625 197.179688 C 221.558594 194.644531 223.792969 192.199219 225.320312 190.433594 C 226.085938 189.550781 226.667969 188.832031 227.0625 188.335938 C 227.472656 187.847656 227.6875 187.589844 227.6875 187.589844 C 227.6875 187.589844 227.578125 187.910156 227.367188 188.511719 C 227.15625 189.109375 226.828125 189.988281 226.328125 191.078125 C 225.34375 193.238281 223.746094 196.324219 221.113281 199.566406 C 218.527344 202.84375 214.898438 206.277344 210.289062 209.003906 Z M 337.523438 201.03125 C 338.609375 203.226562 339.4375 205.640625 340.148438 207.917969 L 342.441406 214.753906 C 344.007812 219.3125 345.648438 223.847656 347.296875 228.386719 C 350.519531 237.496094 353.738281 246.617188 356.492188 255.890625 C 352.824219 246.9375 349.21875 237.980469 345.6875 228.988281 C 343.96875 224.472656 342.253906 219.957031 340.613281 215.398438 C 339.78125 213.121094 338.992188 210.832031 338.289062 208.503906 C 337.59375 206.152344 336.863281 203.984375 335.835938 201.828125 C 331.800781 193.242188 324.980469 186.148438 317.242188 180.605469 C 309.40625 175.109375 300.492188 171.152344 291.15625 168.6875 C 300.636719 170.523438 309.859375 174.113281 317.996094 179.496094 C 326.117188 184.851562 333.226562 192.101562 337.523438 201.03125 Z M 37.539062 203.425781 C 37.6875 202.929688 37.863281 202.433594 38.054688 201.953125 C 39.363281 202.628906 40.695312 203.597656 41.980469 204.671875 C 44.546875 206.84375 46.96875 209.417969 49.152344 212.210938 C 48.476562 208.707031 47.480469 205.222656 46.046875 201.765625 C 45.3125 200.027344 44.46875 198.292969 43.28125 196.554688 C 43 196.121094 42.679688 195.6875 42.300781 195.257812 C 42.269531 195.210938 42.226562 195.171875 42.195312 195.128906 C 51.472656 183.863281 71.226562 175.109375 90.285156 170.066406 C 90.425781 172.128906 90.597656 174.1875 90.773438 176.234375 L 90.910156 177.742188 L 91.089844 179.371094 C 91.242188 180.457031 91.433594 181.546875 91.695312 182.621094 C 92.21875 184.777344 92.96875 186.910156 93.960938 188.890625 C 95.945312 192.878906 98.664062 196.136719 101.222656 199.230469 C 103.773438 202.351562 106.28125 205.394531 108.53125 208.699219 C 110.835938 211.957031 112.875 215.425781 114.933594 218.964844 C 114.042969 214.96875 112.664062 211.082031 110.960938 207.308594 C 109.222656 203.558594 107.09375 199.957031 104.828125 196.574219 C 102.605469 193.15625 100.375 189.929688 98.917969 186.566406 C 98.207031 184.875 97.640625 183.160156 97.273438 181.367188 C 97.09375 180.472656 96.953125 179.5625 96.832031 178.648438 L 96.695312 177.253906 L 96.574219 175.742188 C 95.902344 167.667969 95.050781 159.71875 94.683594 151.773438 C 94.601562 149.65625 94.554688 147.535156 94.5625 145.414062 C 94.984375 140.957031 95.921875 136.515625 97.707031 132.746094 C 104.152344 119.132812 108.035156 107.445312 118.777344 84.886719 C 120.835938 80.558594 122.859375 75.417969 125.117188 69.933594 C 123.378906 77.605469 122.210938 85.21875 120.191406 92.609375 C 118.007812 100.828125 114.835938 108.777344 111.195312 116.648438 C 116.257812 109.628906 120.351562 101.8125 123.167969 93.515625 C 124.644531 89.390625 125.664062 85.132812 126.699219 80.917969 C 127.671875 76.703125 128.488281 72.472656 129.585938 68.386719 C 131.574219 60.144531 134.613281 52.289062 138.902344 44.960938 C 140.917969 41.496094 143.15625 38.160156 145.507812 34.882812 C 148.085938 32.171875 150.9375 29.671875 154.097656 27.472656 C 155.519531 26.910156 156.964844 26.429688 158.421875 26.027344 C 163.695312 24.566406 169.03125 24.292969 174.621094 24.574219 C 180.1875 24.863281 185.976562 25.375 191.695312 25.765625 C 197.445312 26.148438 203.203125 26.59375 209.132812 26.664062 C 203.761719 24.140625 198.113281 22.429688 192.394531 21.09375 C 187.015625 19.898438 181.644531 19.027344 176.058594 18.660156 C 179.617188 18.066406 183.410156 17.71875 187.496094 17.71875 C 191.761719 17.539062 196.046875 17.761719 200.308594 18.335938 C 204.546875 19.019531 208.734375 20.15625 212.746094 21.761719 C 216.769531 23.355469 220.550781 25.554688 224.035156 28.128906 C 227.511719 30.722656 230.648438 33.757812 233.457031 37.046875 C 239.042969 43.671875 243.273438 51.269531 246.734375 59.09375 C 248.464844 63.011719 250.054688 66.984375 251.597656 70.957031 C 253.085938 74.957031 254.613281 78.933594 256.222656 82.886719 C 252.238281 75.324219 249.117188 67.351562 245.34375 59.746094 C 241.589844 52.148438 237.390625 44.742188 231.929688 38.339844 C 228.085938 33.75 223.550781 29.761719 218.488281 26.597656 C 225.820312 32.757812 228.503906 41.097656 230.386719 48.214844 C 225.882812 42.5 220.671875 37.175781 214.378906 33.601562 C 219.679688 39.648438 223.753906 46.257812 227.351562 53.152344 C 230.980469 60.035156 234.152344 67.152344 237.511719 74.34375 C 238.335938 76.117188 239.257812 78.003906 240.265625 79.824219 C 241.257812 81.648438 242.316406 83.429688 243.429688 85.148438 C 245.648438 88.613281 248.011719 91.917969 250.421875 95.132812 C 255.261719 101.539062 260.222656 107.632812 264.613281 113.984375 C 269.007812 120.316406 272.796875 126.941406 275.457031 134.023438 C 278.144531 141.09375 279.617188 148.601562 280.003906 156.253906 L 280.117188 159.117188 C 280.136719 160.027344 280.109375 160.941406 280.050781 161.863281 C 279.925781 163.707031 279.652344 165.570312 279.277344 167.4375 C 278.492188 171.152344 277.335938 174.855469 275.960938 178.507812 C 273.152344 185.785156 269.578125 192.863281 265.492188 199.6875 C 268.140625 196.710938 270.558594 193.515625 272.820312 190.214844 C 274.957031 187.117188 276.898438 183.878906 278.664062 180.519531 C 277.003906 185.460938 275.035156 190.300781 272.691406 194.976562 C 269.121094 201.992188 264.765625 208.625 259.296875 214.71875 C 263.726562 212.101562 267.660156 208.667969 271.097656 204.769531 C 298.425781 212.242188 318.066406 203.765625 326.34375 212.457031 C 334.800781 221.347656 349.625 256.03125 356.492188 285.214844 C 364.402344 318.859375 368.121094 325.949219 358.40625 335.035156 C 357.097656 335.617188 355.890625 336.351562 354.457031 336.820312 C 353.753906 337.074219 353.0625 337.378906 352.332031 337.636719 C 351.589844 337.851562 350.828125 338.074219 350.054688 338.300781 C 347.445312 338.777344 344.394531 339.257812 341.042969 339.757812 L 340.09375 339.808594 C 339.238281 339.929688 338.355469 339.890625 337.484375 339.929688 C 336.613281 339.949219 335.746094 339.980469 334.875 339.925781 C 334.003906 339.875 333.136719 339.886719 332.28125 339.875 C 331.417969 339.832031 330.5625 339.789062 329.722656 339.753906 C 328.03125 339.644531 326.386719 339.539062 324.832031 339.445312 C 323.273438 339.28125 321.777344 339.234375 320.390625 339.136719 C 317.621094 338.945312 315.269531 338.839844 313.613281 338.832031 C 311.957031 338.8125 311 338.859375 311 338.859375 C 311 338.859375 311.847656 339.304688 313.359375 339.988281 C 314.875 340.664062 317.03125 341.605469 319.710938 342.5 C 319.996094 342.601562 320.304688 342.695312 320.601562 342.792969 C 311.390625 344.238281 303.304688 345.734375 300.476562 347.160156 L 302.296875 308.035156 C 308.40625 306.035156 308.664062 301.09375 314.257812 300.070312 C 320.910156 298.84375 336.957031 301.191406 336.957031 301.191406 C 336.957031 301.191406 334.941406 298.066406 322.683594 294.226562 C 310.425781 290.386719 309.195312 287.769531 306.914062 280.925781 C 305.296875 276.070312 305.441406 273.425781 304.1875 267.441406 L 305.496094 239.285156 C 305.671875 235.566406 304.300781 231.894531 301.734375 229.207031 C 299.167969 226.515625 295.5625 224.976562 291.847656 224.976562 L 218.351562 224.976562 C 227.039062 212.785156 236.046875 197.066406 244.261719 179.402344 C 249.253906 168.683594 251.527344 157.886719 251.496094 147.613281 C 252.015625 150.566406 252.464844 153.535156 252.878906 156.519531 C 253.546875 161.71875 254.054688 166.964844 254.542969 172.226562 C 255.257812 163.972656 255.429688 155.652344 254.902344 147.3125 C 254.867188 141.042969 254.503906 134.761719 253.707031 128.503906 C 252.292969 117.980469 249.636719 107.335938 244.074219 97.832031 C 241.320312 93.097656 237.859375 88.667969 233.617188 85.058594 C 229.417969 81.417969 224.605469 78.492188 219.511719 76.34375 C 209.242188 72.121094 198.230469 70.886719 187.496094 70.785156 C 176.769531 70.878906 165.757812 72.125 155.484375 76.335938 C 150.390625 78.484375 145.574219 81.410156 141.378906 85.050781 C 137.132812 88.660156 133.671875 93.09375 130.917969 97.828125 C 125.355469 107.328125 122.699219 117.980469 121.285156 128.496094 C 120.488281 134.742188 120.128906 140.988281 120.097656 147.226562 C 119.5625 155.597656 119.730469 163.941406 120.453125 172.226562 C 120.949219 166.964844 121.453125 161.71875 122.125 156.519531 C 122.84375 151.324219 123.648438 146.167969 124.800781 141.105469 C 125.046875 139.957031 125.316406 138.8125 125.59375 137.671875 C 124.773438 149.164062 127.210938 161.746094 133.460938 174.515625 C 139.09375 186.019531 144.667969 196.929688 150.078125 206.722656 C 148.164062 204.183594 146.261719 201.632812 144.367188 199.046875 C 141.703125 195.441406 139.09375 191.777344 136.136719 188.113281 C 136.820312 192.78125 138.359375 197.210938 140.3125 201.441406 C 142.292969 205.652344 144.738281 209.65625 147.570312 213.359375 C 150.394531 217.066406 153.613281 220.476562 157.167969 223.492188 C 157.773438 224 158.40625 224.484375 159.035156 224.976562 L 133.582031 224.976562 C 124.617188 211.507812 118.164062 196.105469 114.933594 179.867188 C 116.203125 195.328125 120.347656 210.691406 127.207031 224.976562 L 83.148438 224.976562 C 79.433594 224.976562 75.832031 226.515625 73.265625 229.207031 C 70.699219 231.894531 69.328125 235.566406 69.5 239.285156 L 70.5 260.777344 C 70.179688 260.359375 69.863281 259.945312 69.527344 259.53125 C 68.558594 258.296875 67.519531 257.046875 66.335938 255.914062 C 65.171875 254.816406 63.753906 253.75 62.21875 253.511719 C 63.375 254.527344 63.839844 255.890625 64.210938 257.238281 C 64.5625 258.609375 64.761719 260.023438 64.925781 261.488281 C 65.09375 262.945312 65.21875 264.433594 65.425781 266.019531 C 65.535156 266.816406 65.648438 267.636719 65.882812 268.550781 L 66.058594 269.242188 L 66.339844 270.023438 C 66.382812 270.164062 66.453125 270.328125 66.535156 270.5 C 62.976562 276.402344 59.9375 280.324219 62.105469 284.046875 C 65.597656 290.054688 64.726562 290.386719 54.019531 294.226562 C 43.316406 298.066406 32.390625 302.734375 32.390625 302.734375 C 32.390625 302.734375 45.5 299.566406 53.800781 301.320312 C 61.210938 302.882812 65.417969 307.027344 72.71875 308.441406 L 74.429688 345.21875 C 70.285156 344.335938 61.488281 343.027344 51.726562 341.941406 C 53.773438 341.402344 55.6875 340.898438 57.441406 340.5 C 60.640625 339.785156 63.351562 339.417969 65.308594 339.269531 C 67.28125 339.179688 68.417969 339.136719 68.417969 339.136719 C 68.417969 339.136719 68.148438 339.03125 67.652344 338.835938 C 67.148438 338.660156 66.40625 338.347656 65.429688 338.085938 C 63.480469 337.554688 60.566406 337.039062 57.070312 337.070312 C 53.578125 337.042969 49.574219 337.53125 45.445312 338.085938 C 43.382812 338.390625 41.257812 338.601562 39.148438 338.863281 C 37.027344 339.128906 34.886719 339.28125 32.757812 339.332031 C 30.628906 339.449219 28.496094 339.457031 26.410156 339.316406 C 25.363281 339.277344 24.328125 339.167969 23.304688 339.078125 C 22.789062 339.042969 22.277344 339 21.773438 338.960938 C 21.308594 338.917969 20.890625 338.84375 20.4375 338.75 C 18.644531 338.351562 16.816406 337.796875 15.175781 337.109375 C 13.558594 336.40625 11.992188 335.644531 10.90625 334.808594 C 9.570312 333.75 8.570312 332.417969 7.78125 331.152344 C 5.328125 316.722656 8.878906 293.058594 13.148438 279.527344 C 19.589844 259.117188 32.527344 219.902344 37.539062 203.425781 Z M 265.035156 357.46875 C 270.214844 356.96875 275.390625 356.417969 280.558594 355.757812 C 265.003906 355.234375 249.488281 355.136719 233.988281 355.058594 L 187.496094 354.953125 L 141.007812 355.070312 C 125.503906 355.136719 109.996094 355.246094 94.441406 355.757812 C 99.628906 356.417969 104.824219 356.96875 110.023438 357.46875 L 88.324219 357.46875 C 84.230469 357.46875 80.859375 354.253906 80.671875 350.164062 L 75.496094 239 C 75.296875 234.632812 78.78125 230.988281 83.148438 230.988281 L 168.882812 230.988281 C 168.914062 230.988281 291.847656 230.988281 291.847656 230.988281 C 296.21875 230.988281 299.703125 234.632812 299.5 239 L 294.328125 350.164062 C 294.136719 354.253906 290.765625 357.46875 286.675781 357.46875 Z M 373.746094 312.035156 C 372.964844 300.460938 370.601562 287.308594 367.574219 277.714844 C 364.335938 267.460938 359.007812 252.597656 353.859375 238.21875 C 348.625 223.617188 343.679688 209.820312 341.203125 201.675781 C 336.234375 185.351562 317.292969 171.570312 290.054688 164.214844 C 291.03125 157.023438 291.652344 144.59375 286.722656 134.175781 C 284.054688 128.546875 281.183594 122.308594 277.855469 115.078125 C 273.207031 104.964844 267.929688 93.515625 261.644531 80.296875 C 260.167969 77.199219 258.679688 73.617188 257.101562 69.824219 C 247.472656 46.6875 232.929688 11.710938 187.496094 11.710938 C 142.402344 11.710938 127.796875 47.46875 118.136719 71.132812 C 116.472656 75.207031 114.898438 79.050781 113.355469 82.304688 C 107.1875 95.257812 103.285156 104.601562 99.839844 112.851562 C 97.246094 119.054688 95.003906 124.421875 92.28125 130.175781 C 87.144531 141.027344 88.046875 156.050781 89.066406 164.167969 C 64.042969 170.730469 37.296875 183.582031 31.792969 201.675781 C 28.898438 211.199219 23.304688 228.46875 17.894531 245.175781 C 13.898438 257.5 10.128906 269.144531 7.421875 277.714844 C 4.398438 287.308594 2.03125 300.460938 1.253906 312.035156 C 0.226562 327.234375 1.902344 337.9375 6.238281 343.847656 C 8.882812 347.464844 12.675781 349.460938 16.90625 349.460938 C 20.3125 349.460938 25.691406 350.417969 33.132812 351.746094 C 43.320312 353.5625 57.402344 356.074219 77.632812 358.304688 C 80.136719 361.460938 83.992188 363.476562 88.324219 363.476562 L 187.367188 363.476562 C 187.632812 363.476562 286.675781 363.476562 286.675781 363.476562 C 291.003906 363.476562 294.863281 361.460938 297.367188 358.304688 C 317.597656 356.074219 331.679688 353.5625 341.863281 351.746094 C 349.308594 350.417969 354.683594 349.460938 358.09375 349.460938 C 362.320312 349.460938 366.113281 347.464844 368.765625 343.847656 C 373.097656 337.9375 374.769531 327.234375 373.746094 312.035156 " fill-opacity="1" fill-rule="nonzero"/></g><path fill="#ffffff" d="M 187.496094 235.980469 L 132.066406 235.894531 L 104.347656 235.847656 L 90.488281 235.816406 L 83.558594 235.78125 C 81.621094 235.714844 79.855469 237.417969 79.875 239.367188 L 82.160156 294.738281 L 84.253906 350.171875 L 81.191406 294.785156 L 78.347656 239.355469 C 78.34375 237.992188 78.910156 236.644531 79.882812 235.691406 C 80.839844 234.726562 82.210938 234.179688 83.558594 234.179688 L 90.488281 234.148438 L 104.347656 234.121094 L 132.066406 234.078125 L 187.496094 233.984375 L 270.652344 234.113281 L 284.507812 234.144531 L 291.4375 234.179688 C 292.789062 234.175781 294.160156 234.726562 295.117188 235.691406 C 296.089844 236.644531 296.660156 237.992188 296.65625 239.355469 L 293.8125 294.785156 L 290.746094 350.171875 L 292.832031 294.738281 L 295.117188 239.367188 C 295.136719 237.417969 293.378906 235.714844 291.4375 235.789062 L 284.507812 235.820312 L 270.652344 235.851562 Z M 208.023438 297.253906 C 207.179688 292.246094 204.21875 288.246094 200.441406 285.652344 C 200.402344 285.625 200.359375 285.605469 200.316406 285.570312 C 203.410156 288.304688 205.316406 292.011719 205.316406 296.105469 C 205.316406 304.484375 197.339844 311.28125 187.496094 311.28125 C 177.660156 311.28125 169.683594 304.484375 169.683594 296.105469 C 169.683594 292 171.597656 288.285156 174.703125 285.550781 C 174.652344 285.589844 174.601562 285.613281 174.550781 285.648438 C 170.773438 288.238281 167.8125 292.246094 166.976562 297.253906 C 166.53125 294.753906 166.929688 292.078125 167.933594 289.621094 C 168.964844 287.1875 170.597656 284.964844 172.628906 283.199219 C 176.675781 279.632812 182.121094 277.78125 187.496094 277.769531 C 192.878906 277.769531 198.324219 279.628906 202.375 283.199219 C 204.40625 284.964844 206.039062 287.179688 207.070312 289.621094 C 208.074219 292.078125 208.472656 294.753906 208.023438 297.253906 Z M 294.328125 350.164062 L 299.5 239 C 299.703125 234.632812 296.21875 230.988281 291.847656 230.988281 L 168.914062 230.988281 C 168.882812 230.988281 83.148438 230.988281 83.148438 230.988281 C 78.78125 230.988281 75.296875 234.632812 75.496094 239 L 80.671875 350.164062 C 80.859375 354.253906 84.230469 357.46875 88.324219 357.46875 L 110.023438 357.46875 C 104.824219 356.96875 99.628906 356.417969 94.441406 355.757812 C 109.996094 355.246094 125.503906 355.136719 141.007812 355.070312 L 187.496094 354.953125 L 233.988281 355.058594 C 249.488281 355.136719 265.003906 355.234375 280.558594 355.757812 C 275.390625 356.417969 270.214844 356.96875 265.035156 357.46875 L 286.675781 357.46875 C 290.765625 357.46875 294.136719 354.253906 294.328125 350.164062 " fill-opacity="1" fill-rule="nonzero"/><path fill="#373737" d="M 284.507812 235.820312 L 291.4375 235.789062 C 293.378906 235.714844 295.136719 237.417969 295.117188 239.367188 L 292.832031 294.738281 L 290.746094 350.171875 L 293.8125 294.785156 L 296.65625 239.355469 C 296.660156 237.992188 296.089844 236.644531 295.117188 235.691406 C 294.160156 234.726562 292.789062 234.175781 291.4375 234.179688 L 284.507812 234.144531 L 270.652344 234.113281 L 187.496094 233.984375 L 132.066406 234.078125 L 104.347656 234.121094 L 90.488281 234.148438 L 83.558594 234.179688 C 82.210938 234.179688 80.839844 234.726562 79.882812 235.691406 C 78.910156 236.644531 78.34375 237.992188 78.347656 239.355469 L 81.191406 294.785156 L 84.253906 350.171875 L 82.160156 294.738281 L 79.875 239.367188 C 79.855469 237.417969 81.621094 235.714844 83.558594 235.78125 L 90.488281 235.816406 L 104.347656 235.847656 L 132.066406 235.894531 L 187.496094 235.980469 L 270.652344 235.851562 L 284.507812 235.820312 " fill-opacity="1" fill-rule="nonzero"/><path fill="#373737" d="M 158.871094 68.976562 C 159.726562 68.773438 160.695312 68.558594 161.761719 68.382812 C 163.835938 67.839844 166.300781 67.40625 168.925781 67.023438 C 171.535156 66.550781 174.335938 66.203125 177.144531 66.003906 C 179.941406 65.667969 182.757812 65.488281 185.410156 65.460938 C 188.058594 65.339844 190.558594 65.308594 192.699219 65.449219 C 193.78125 65.421875 194.773438 65.449219 195.652344 65.488281 C 196.53125 65.507812 197.304688 65.546875 197.9375 65.605469 C 199.226562 65.640625 199.960938 65.660156 199.960938 65.660156 C 199.960938 65.660156 199.289062 65.359375 198.101562 64.84375 C 197.5 64.605469 196.757812 64.363281 195.902344 64.085938 C 195.050781 63.796875 194.074219 63.496094 193 63.210938 C 190.835938 62.710938 188.273438 62.320312 185.5 61.988281 C 182.71875 61.835938 179.746094 61.847656 176.765625 62.023438 C 173.8125 62.414062 170.890625 62.96875 168.183594 63.636719 C 165.519531 64.476562 163.082031 65.351562 161.050781 66.25 C 160.046875 66.730469 159.148438 67.210938 158.363281 67.652344 C 157.570312 68.082031 156.890625 68.460938 156.347656 68.8125 C 155.28125 69.539062 154.667969 69.957031 154.667969 69.957031 C 154.667969 69.957031 155.390625 69.796875 156.648438 69.527344 C 157.257812 69.347656 158.007812 69.167969 158.871094 68.976562 " fill-opacity="1" fill-rule="nonzero"/><path fill="#ffffff" d="M 317.996094 179.496094 C 309.859375 174.113281 300.636719 170.523438 291.15625 168.6875 C 300.492188 171.152344 309.40625 175.109375 317.242188 180.605469 C 324.980469 186.148438 331.800781 193.242188 335.835938 201.828125 C 336.863281 203.984375 337.59375 206.152344 338.289062 208.503906 C 338.992188 210.832031 339.78125 213.121094 340.613281 215.398438 C 342.253906 219.957031 343.96875 224.472656 345.6875 228.988281 C 349.21875 237.980469 352.824219 246.9375 356.492188 255.890625 C 353.738281 246.617188 350.519531 237.496094 347.296875 228.386719 C 345.648438 223.847656 344.007812 219.3125 342.441406 214.753906 L 340.148438 207.917969 C 339.4375 205.640625 338.609375 203.226562 337.523438 201.03125 C 333.226562 192.101562 326.117188 184.851562 317.996094 179.496094 " fill-opacity="1" fill-rule="nonzero"/><path fill="#ffffff" d="M 191.890625 129.523438 C 193.210938 129.523438 194.480469 129.515625 195.710938 129.484375 C 195.921875 123.125 196.738281 117.964844 195.808594 114.671875 C 195.71875 114.351562 195.691406 114.101562 195.695312 113.886719 C 195.613281 112.894531 195.722656 111.84375 195.863281 110.835938 C 198.542969 109.246094 200.824219 107.871094 203.089844 106.433594 C 205.363281 105.035156 207.574219 103.585938 210.039062 102.222656 C 210.140625 102.167969 210.242188 102.113281 210.347656 102.0625 C 204.1875 99.863281 196.96875 98.570312 188.480469 98.570312 C 178.34375 98.570312 169.949219 100.414062 162.976562 103.4375 C 163.253906 103.632812 163.523438 103.835938 163.773438 104.070312 L 164.160156 104.417969 C 164.285156 104.527344 164.285156 104.507812 164.347656 104.558594 C 164.441406 104.636719 164.589844 104.730469 164.730469 104.816406 C 165.351562 105.171875 166.160156 105.554688 167.015625 105.871094 C 168.746094 106.519531 170.644531 107.070312 172.546875 107.582031 C 174.453125 108.089844 176.398438 108.554688 178.332031 108.988281 C 179.296875 109.203125 180.269531 109.394531 181.191406 109.566406 C 181.492188 109.621094 181.808594 109.660156 182.0625 109.695312 C 182.3125 109.203125 182.566406 108.511719 182.78125 107.863281 C 183.085938 106.945312 183.363281 105.964844 183.636719 104.980469 C 184.207031 103 184.683594 100.96875 185.332031 98.914062 C 185.886719 100.996094 186.140625 103.105469 186.304688 105.246094 C 186.371094 106.320312 186.390625 107.402344 186.328125 108.511719 C 186.238281 109.652344 186.179688 110.71875 185.601562 112.160156 C 185.519531 112.335938 185.433594 112.515625 185.3125 112.714844 C 185.460938 116.238281 184.050781 119.5625 173.996094 118.570312 C 162.152344 117.394531 152.304688 117.914062 158.15625 115.832031 C 162.539062 114.265625 163.582031 112.59375 166.988281 111.585938 C 166.289062 111.316406 165.59375 111.027344 164.898438 110.6875 C 163.867188 110.160156 162.824219 109.597656 161.78125 108.71875 C 161.515625 108.488281 161.253906 108.253906 160.988281 107.960938 L 160.628906 107.546875 L 160.46875 107.347656 C 160.277344 107.058594 160.023438 106.820312 159.757812 106.582031 C 159.351562 106.222656 158.851562 105.953125 158.316406 105.734375 C 153.363281 108.511719 149.246094 111.914062 145.828125 115.628906 C 146.070312 116.441406 146.234375 117.265625 146.359375 118.109375 C 149.734375 125.582031 162.09375 129.523438 191.890625 129.523438 " fill-opacity="1" fill-rule="nonzero"/><path fill="#ffffff" d="M 181.753906 110.117188 C 181.621094 110.277344 181.707031 110.253906 181.773438 110.160156 C 181.800781 110.125 181.832031 110.0625 181.863281 110.023438 C 181.8125 110.0625 181.765625 110.109375 181.753906 110.117188 " fill-opacity="1" fill-rule="nonzero"/><path fill="#ffffff" d="M 224.546875 109.90625 C 222.992188 109.835938 221.496094 108.816406 220.371094 107.757812 C 219.257812 106.707031 218.246094 105.519531 217.652344 105.386719 C 217.363281 105.3125 217.398438 105.476562 217.277344 105.523438 C 217.324219 105.664062 217 105.703125 216.503906 106.011719 C 215.5625 106.519531 214.367188 107.230469 213.160156 107.902344 C 211.214844 108.972656 209.082031 109.957031 206.804688 110.65625 C 207.695312 110.699219 208.621094 110.757812 209.566406 110.835938 C 217.089844 111.457031 216.988281 113.746094 222.835938 115.832031 C 228.6875 117.914062 218.84375 117.394531 206.996094 118.570312 C 204.289062 118.832031 202.234375 118.777344 200.644531 118.496094 C 200.054688 121.546875 199.273438 126.21875 199.269531 129.386719 C 215.921875 128.714844 224.207031 125.75 228.347656 122.144531 C 228.378906 119.503906 228.625 116.925781 229.542969 114.53125 C 228.023438 112.914062 226.363281 111.367188 224.546875 109.90625 " fill-opacity="1" fill-rule="nonzero"/><path fill="#ffffff" d="M 178.144531 197.847656 C 180.449219 198.503906 183.210938 199.15625 186.230469 199.316406 C 189.25 199.488281 192.5 199.28125 195.679688 198.660156 C 198.839844 197.953125 201.914062 196.800781 204.574219 195.386719 C 207.257812 193.988281 209.5 192.292969 211.402344 190.871094 C 213.300781 189.429688 214.753906 188.074219 215.804688 187.175781 C 216.824219 186.242188 217.40625 185.703125 217.40625 185.703125 C 217.40625 185.703125 216.738281 186.128906 215.566406 186.867188 C 214.421875 187.640625 212.734375 188.671875 210.757812 189.945312 C 208.78125 191.21875 206.390625 192.554688 203.796875 193.835938 C 201.195312 195.121094 198.28125 196.117188 195.265625 196.703125 C 192.277344 197.371094 189.191406 197.664062 186.300781 197.585938 C 183.414062 197.5 180.703125 197.238281 178.417969 196.753906 C 176.132812 196.289062 174.242188 195.765625 172.929688 195.339844 C 171.621094 194.894531 170.875 194.644531 170.875 194.644531 C 170.875 194.644531 171.570312 195.023438 172.78125 195.699219 C 174.039062 196.28125 175.835938 197.1875 178.144531 197.847656 " fill-opacity="1" fill-rule="nonzero"/><path fill="#ffffff" d="M 226.328125 191.078125 C 226.828125 189.988281 227.15625 189.109375 227.367188 188.511719 C 227.578125 187.910156 227.6875 187.589844 227.6875 187.589844 C 227.6875 187.589844 227.472656 187.847656 227.0625 188.335938 C 226.667969 188.832031 226.085938 189.550781 225.320312 190.433594 C 223.792969 192.199219 221.558594 194.644531 218.625 197.179688 C 215.6875 199.707031 212.011719 202.296875 207.792969 204.339844 C 205.707031 205.367188 203.367188 206.105469 201.019531 206.871094 C 199.828125 207.195312 198.65625 207.617188 197.433594 207.824219 L 195.609375 208.195312 C 195 208.3125 194.382812 208.355469 193.769531 208.441406 C 191.324219 208.851562 188.84375 208.867188 186.425781 208.78125 C 185.214844 208.683594 184.011719 208.550781 182.824219 208.433594 C 181.65625 208.195312 180.464844 208.097656 179.34375 207.765625 C 178.222656 207.441406 177.085938 207.214844 176.027344 206.820312 C 174.945312 206.46875 173.878906 206.140625 172.886719 205.683594 C 171.882812 205.257812 170.894531 204.855469 169.984375 204.371094 C 169.050781 203.914062 168.128906 203.5 167.304688 202.992188 C 163.894531 201.117188 161.253906 199.121094 159.347656 197.765625 C 157.53125 196.296875 156.421875 195.492188 156.421875 195.492188 C 156.421875 195.492188 157.128906 196.632812 158.5 198.601562 C 159.96875 200.460938 162.105469 203.1875 165.359375 205.8125 C 166.128906 206.515625 167.023438 207.140625 167.941406 207.804688 C 168.847656 208.492188 169.851562 209.097656 170.914062 209.6875 C 171.941406 210.324219 173.070312 210.867188 174.230469 211.40625 C 175.375 212.003906 176.628906 212.398438 177.894531 212.839844 C 179.15625 213.296875 180.496094 213.554688 181.832031 213.933594 C 183.191406 214.1875 184.582031 214.433594 185.992188 214.558594 C 188.808594 214.746094 191.710938 214.785156 194.550781 214.390625 C 195.257812 214.28125 195.976562 214.210938 196.675781 214.058594 L 198.757812 213.585938 C 200.160156 213.316406 201.484375 212.820312 202.824219 212.414062 C 205.453125 211.492188 207.953125 210.351562 210.289062 209.003906 C 214.898438 206.277344 218.527344 202.84375 221.113281 199.566406 C 223.746094 196.324219 225.34375 193.238281 226.328125 191.078125 " fill-opacity="1" fill-rule="nonzero"/><path fill="#ffffff" d="M 148.1875 138.699219 C 150.164062 141.4375 152.273438 143.769531 153.832031 146.539062 C 155.414062 149.261719 156.402344 152.253906 156.839844 155.371094 C 157.019531 156.890625 157.242188 158.644531 157.609375 160.238281 C 157.972656 161.847656 158.417969 163.441406 158.9375 165.011719 C 161.0625 171.234375 164.34375 177.253906 169.320312 181.730469 C 170.566406 182.835938 171.90625 183.839844 173.316406 184.710938 C 174.761719 185.546875 176.253906 186.285156 177.816406 186.832031 C 180.953125 187.878906 184.261719 188.320312 187.496094 188.113281 C 184.265625 187.871094 181.074219 187.230469 178.175781 185.917969 C 175.257812 184.648438 172.644531 182.800781 170.390625 180.601562 C 165.902344 176.140625 162.855469 170.378906 160.832031 164.375 C 160.316406 162.871094 159.875 161.34375 159.515625 159.796875 C 159.136719 158.234375 158.957031 156.773438 158.707031 155.074219 C 158.148438 151.796875 157.023438 148.527344 155.203125 145.714844 C 154.3125 144.304688 153.296875 142.992188 152.25 141.734375 C 151.230469 140.492188 150.003906 139.269531 149.089844 138.101562 C 147.277344 135.601562 146.972656 132.199219 146.632812 129.011719 C 146.550781 130.636719 146.527344 132.265625 146.714844 133.910156 C 146.910156 135.53125 147.273438 137.214844 148.1875 138.699219 " fill-opacity="1" fill-rule="nonzero"/><path fill="#373737" d="M 202.375 283.199219 C 198.324219 279.628906 192.878906 277.769531 187.496094 277.769531 C 182.121094 277.78125 176.675781 279.632812 172.628906 283.199219 C 170.597656 284.964844 168.964844 287.1875 167.933594 289.621094 C 166.929688 292.078125 166.53125 294.753906 166.976562 297.253906 C 167.8125 292.246094 170.773438 288.238281 174.550781 285.648438 C 174.601562 285.613281 174.652344 285.589844 174.703125 285.550781 C 171.597656 288.285156 169.683594 292 169.683594 296.105469 C 169.683594 304.484375 177.660156 311.28125 187.496094 311.28125 C 197.339844 311.28125 205.316406 304.484375 205.316406 296.105469 C 205.316406 292.011719 203.410156 288.304688 200.316406 285.570312 C 200.359375 285.605469 200.402344 285.625 200.441406 285.652344 C 204.21875 288.246094 207.179688 292.246094 208.023438 297.253906 C 208.472656 294.753906 208.074219 292.078125 207.070312 289.621094 C 206.039062 287.179688 204.40625 284.964844 202.375 283.199219 " fill-opacity="1" fill-rule="nonzero"/></svg>